<svg width="27" height="27" viewBox="0 0 27 27" fill="none" xmlns="http://www.w3.org/2000/svg">
<path d="M26.8261 9.25237C26.6941 9.12273 26.5097 9.06126 26.3263 9.08581H19.1636V5.92086C19.1636 2.79296 16.628 0.257324 13.5001 0.257324C10.3722 0.257324 7.83655 2.79296 7.83655 5.92086V9.08581H0.673719C0.47381 9.08581 0.273963 9.08581 0.173977 9.25237C0.0396832 9.38144 -0.0226173 9.56827 0.00741703 9.75211L2.50607 23.4113C2.85513 25.3167 4.50038 26.711 6.43724 26.7428H20.5628C22.5052 26.695 24.147 25.2897 24.494 23.378L26.9926 9.75211C27.0227 9.56827 26.9604 9.38144 26.8261 9.25237ZM9.16909 5.92086C9.16909 3.52896 11.1081 1.58993 13.5 1.58993C15.8919 1.58993 17.831 3.52896 17.831 5.92086V9.08581H9.16909V5.92086ZM23.1614 23.2114C22.937 24.474 21.8452 25.3979 20.5628 25.4102H6.43724C5.15489 25.3979 4.06307 24.4741 3.83867 23.2114L1.47329 10.4184H25.5268L23.1614 23.2114Z" fill="white"/>
</svg>
