<svg width="31" height="31" viewBox="0 0 31 31" fill="none" xmlns="http://www.w3.org/2000/svg">
<g clip-path="url(#clip0_677_2498)">
<path fill-rule="evenodd" clip-rule="evenodd" d="M21.3125 29.0625C23.3679 29.0625 25.3392 28.246 26.7926 26.7926C28.246 25.3392 29.0625 23.3679 29.0625 21.3125C29.0625 19.2571 28.246 17.2858 26.7926 15.8324C25.3392 14.379 23.3679 13.5625 21.3125 13.5625C19.2571 13.5625 17.2858 14.379 15.8324 15.8324C14.379 17.2858 13.5625 19.2571 13.5625 21.3125C13.5625 23.3679 14.379 25.3392 15.8324 26.7926C17.2858 28.246 19.2571 29.0625 21.3125 29.0625ZM31 21.3125C31 23.8818 29.9794 26.3458 28.1626 28.1626C26.3458 29.9794 23.8818 31 21.3125 31C18.7432 31 16.2792 29.9794 14.4624 28.1626C12.6456 26.3458 11.625 23.8818 11.625 21.3125C11.625 18.7432 12.6456 16.2792 14.4624 14.4624C16.2792 12.6456 18.7432 11.625 21.3125 11.625C23.8818 11.625 26.3458 12.6456 28.1626 14.4624C29.9794 16.2792 31 18.7432 31 21.3125Z" fill="black"/>
<path d="M18.2861 23.1415C18.3772 24.2963 19.2897 25.1953 20.9269 25.3038V26.1562H21.6535V25.2979C23.3488 25.1798 24.3389 24.273 24.3389 22.9594C24.3389 21.762 23.5832 21.1459 22.227 20.8281L21.6535 20.6925V18.3675C22.382 18.4508 22.8431 18.848 22.9536 19.3983H24.2284C24.1374 18.2842 23.1822 17.4143 21.6535 17.3193V16.4688H20.9269V17.3406C19.4796 17.4821 18.4954 18.352 18.4954 19.5842C18.4954 20.6731 19.2277 21.3667 20.4464 21.6496L20.9269 21.7678V24.2323C20.1829 24.1199 19.6889 23.7092 19.5784 23.1415H18.2861ZM20.9211 20.5181C20.2062 20.3534 19.8187 20.0144 19.8187 19.5067C19.8187 18.9371 20.2372 18.5109 20.9269 18.3869V20.5181H20.9211ZM21.7581 21.9635C22.6281 22.165 23.0272 22.4905 23.0272 23.0659C23.0272 23.7227 22.5292 24.1723 21.6535 24.2556V21.9403L21.7581 21.9635Z" fill="black"/>
<path d="M1.9375 0C1.42364 0 0.930832 0.204129 0.567481 0.567481C0.204129 0.930832 0 1.42364 0 1.9375L0 17.4375C0 17.9514 0.204129 18.4442 0.567481 18.8075C0.930832 19.1709 1.42364 19.375 1.9375 19.375H9.84831C9.96198 18.7072 10.1286 18.0614 10.3482 17.4375H5.8125C5.8125 16.4098 5.40424 15.4242 4.67754 14.6975C3.95084 13.9708 2.96521 13.5625 1.9375 13.5625V5.8125C2.96521 5.8125 3.95084 5.40424 4.67754 4.67754C5.40424 3.95084 5.8125 2.96521 5.8125 1.9375H25.1875C25.1875 2.96521 25.5958 3.95084 26.3225 4.67754C27.0492 5.40424 28.0348 5.8125 29.0625 5.8125V12.648C29.7987 13.3067 30.4517 14.0585 31 14.8839V1.9375C31 1.42364 30.7959 0.930832 30.4325 0.567481C30.0692 0.204129 29.5764 0 29.0625 0L1.9375 0Z" fill="black"/>
<path d="M19.3711 9.84796L19.375 9.68715C19.3746 9.01986 19.2019 8.36398 18.8736 7.78303C18.5453 7.20208 18.0726 6.71575 17.5011 6.37115C16.9297 6.02655 16.279 5.83535 15.612 5.81607C14.9449 5.79679 14.2843 5.95009 13.6939 6.26111C13.1035 6.57213 12.6035 7.03034 12.2421 7.59135C11.8808 8.15237 11.6705 8.79718 11.6316 9.46333C11.5927 10.1295 11.7264 10.7944 12.0199 11.3937C12.3134 11.993 12.7566 12.5063 13.3068 12.884C14.9815 11.2917 17.0928 10.2347 19.3711 9.84796Z" fill="black"/>
</g>
<defs>
<clipPath id="clip0_677_2498">
<rect width="31" height="31" fill="white"/>
</clipPath>
</defs>
</svg>
