<svg width="20" height="18" viewBox="0 0 20 18" fill="none" xmlns="http://www.w3.org/2000/svg">
<path d="M1.43751 8.99994C1.4373 7.67234 1.78659 6.36809 2.45025 5.21828C3.11392 4.06847 4.06857 3.11362 5.21825 2.44974C6.36793 1.78585 7.67212 1.43631 8.99972 1.43626C10.3273 1.43621 11.6315 1.78564 12.7813 2.44944C12.9391 2.53917 13.126 2.56283 13.3012 2.51527C13.4764 2.4677 13.6257 2.35276 13.7165 2.19554C13.8072 2.03832 13.8321 1.85157 13.7857 1.67606C13.7393 1.50054 13.6254 1.35051 13.4688 1.25869C11.7649 0.274989 9.78415 -0.119031 7.83358 0.137735C5.883 0.394501 4.07166 1.2877 2.68045 2.67882C1.28924 4.06994 0.395922 5.88123 0.13903 7.83179C-0.117861 9.78234 0.276033 11.7632 1.25962 13.467C2.24321 15.1709 3.76154 16.5027 5.57912 17.2557C7.3967 18.0087 9.41196 18.141 11.3124 17.632C13.2128 17.123 14.8921 16.0011 16.09 14.4404C17.2878 12.8797 17.9373 10.9673 17.9375 8.99994C17.9375 8.8176 17.8651 8.64274 17.7361 8.5138C17.6072 8.38487 17.4324 8.31244 17.25 8.31244C17.0677 8.31244 16.8928 8.38487 16.7639 8.5138C16.6349 8.64274 16.5625 8.8176 16.5625 8.99994C16.5625 11.0056 15.7658 12.9292 14.3475 14.3474C12.9293 15.7657 11.0057 16.5624 9.00001 16.5624C6.99431 16.5624 5.07076 15.7657 3.65252 14.3474C2.23427 12.9292 1.43751 11.0056 1.43751 8.99994Z" fill="white"/>
<path d="M19.1116 2.61164C19.1756 2.54772 19.2263 2.47184 19.2609 2.38832C19.2955 2.3048 19.3133 2.21529 19.3133 2.12489C19.3133 2.03449 19.2955 1.94498 19.2609 1.86146C19.2263 1.77795 19.1756 1.70206 19.1116 1.63814C19.0477 1.57422 18.9718 1.52352 18.8883 1.48892C18.8048 1.45433 18.7153 1.43652 18.6249 1.43652C18.5345 1.43652 18.445 1.45433 18.3615 1.48892C18.2779 1.52352 18.2021 1.57422 18.1381 1.63814L8.99989 10.7778L5.36164 7.13814C5.29772 7.07422 5.22184 7.02352 5.13832 6.98892C5.0548 6.95433 4.96529 6.93652 4.87489 6.93652C4.78449 6.93652 4.69498 6.95433 4.61146 6.98892C4.52795 7.02352 4.45206 7.07422 4.38814 7.13814C4.32422 7.20206 4.27352 7.27795 4.23892 7.36146C4.20433 7.44498 4.18652 7.53449 4.18652 7.62489C4.18652 7.71529 4.20433 7.8048 4.23892 7.88832C4.27352 7.97184 4.32422 8.04772 4.38814 8.11164L8.51314 12.2366C8.577 12.3007 8.65287 12.3515 8.7364 12.3861C8.81992 12.4208 8.90946 12.4386 8.99989 12.4386C9.09032 12.4386 9.17986 12.4208 9.26339 12.3861C9.34691 12.3515 9.42278 12.3007 9.48664 12.2366L19.1116 2.61164Z" fill="white"/>
</svg>
