<svg width="29" height="22" viewBox="0 0 29 22" fill="none" xmlns="http://www.w3.org/2000/svg">
<path fill-rule="evenodd" clip-rule="evenodd" d="M8.6875 18.2812C8.6875 18.0243 8.78956 17.7779 8.97124 17.5962C9.15292 17.4146 9.39932 17.3125 9.65625 17.3125H27.0938C27.3507 17.3125 27.5971 17.4146 27.7788 17.5962C27.9604 17.7779 28.0625 18.0243 28.0625 18.2812C28.0625 18.5382 27.9604 18.7846 27.7788 18.9663C27.5971 19.1479 27.3507 19.25 27.0938 19.25H9.65625C9.39932 19.25 9.15292 19.1479 8.97124 18.9663C8.78956 18.7846 8.6875 18.5382 8.6875 18.2812ZM8.6875 10.5312C8.6875 10.2743 8.78956 10.0279 8.97124 9.84624C9.15292 9.66456 9.39932 9.5625 9.65625 9.5625H27.0938C27.3507 9.5625 27.5971 9.66456 27.7788 9.84624C27.9604 10.0279 28.0625 10.2743 28.0625 10.5312C28.0625 10.7882 27.9604 11.0346 27.7788 11.2163C27.5971 11.3979 27.3507 11.5 27.0938 11.5H9.65625C9.39932 11.5 9.15292 11.3979 8.97124 11.2163C8.78956 11.0346 8.6875 10.7882 8.6875 10.5312ZM8.6875 2.78125C8.6875 2.52432 8.78956 2.27792 8.97124 2.09624C9.15292 1.91456 9.39932 1.8125 9.65625 1.8125H27.0938C27.3507 1.8125 27.5971 1.91456 27.7788 2.09624C27.9604 2.27792 28.0625 2.52432 28.0625 2.78125C28.0625 3.03818 27.9604 3.28458 27.7788 3.46626C27.5971 3.64794 27.3507 3.75 27.0938 3.75H9.65625C9.39932 3.75 9.15292 3.64794 8.97124 3.46626C8.78956 3.28458 8.6875 3.03818 8.6875 2.78125Z" fill="black"/>
<path d="M2.31894 18.9883V18.0699H2.875C3.29544 18.0699 3.57831 17.8045 3.57831 17.4557C3.57831 17.0973 3.27219 16.8551 2.87888 16.8551C2.44681 16.8551 2.16781 17.1496 2.15619 17.4557H1.01306C1.04406 16.5509 1.73575 15.9309 2.92344 15.9309C4.06269 15.927 4.77181 16.4947 4.77763 17.293C4.78129 17.5668 4.68739 17.8329 4.51273 18.0438C4.33807 18.2547 4.09406 18.3965 3.82437 18.4438V18.5078C4.13013 18.5306 4.41533 18.6704 4.62066 18.8981C4.82599 19.1258 4.93564 19.4239 4.92681 19.7303C4.93263 20.763 3.95419 21.2803 2.8905 21.2803C1.6195 21.2803 0.953 20.5635 0.9375 19.742H2.06512C2.08063 20.0868 2.4255 20.3348 2.88275 20.3407C3.37487 20.3407 3.70425 20.0597 3.70038 19.6625C3.6965 19.2847 3.40006 18.9883 2.89825 18.9883H2.317H2.31894ZM2.31119 9.88397H1.14094V9.81616C1.14094 9.02566 1.7125 8.18091 2.99706 8.18091C4.12662 8.18091 4.85706 8.81254 4.85706 9.64566C4.85706 10.3993 4.35912 10.8411 3.93481 11.2887L2.89437 12.3969V12.455H4.9365V13.4373H1.21456V12.672L3.06875 10.7539C3.33612 10.4788 3.63644 10.1649 3.63644 9.76966C3.63644 9.42091 3.35163 9.14966 2.97381 9.14966C2.88659 9.14646 2.79964 9.16115 2.71831 9.19283C2.63698 9.2245 2.563 9.2725 2.50092 9.33385C2.43885 9.3952 2.38999 9.46861 2.35736 9.54956C2.32473 9.63051 2.30901 9.71728 2.31119 9.80454V9.88397ZM3.96775 5.68735H2.73744V1.6651H2.67737L1.51875 2.47885V1.38028L2.73744 0.521973H3.96775V5.68735Z" fill="black"/>
</svg>
