<svg width="29" height="22" viewBox="0 0 29 22" fill="none" xmlns="http://www.w3.org/2000/svg">
<path fill-rule="evenodd" clip-rule="evenodd" d="M8.6875 19.281C8.6875 19.0241 8.78957 18.7777 8.97124 18.596C9.15292 18.4143 9.39933 18.3123 9.65625 18.3123H27.0938C27.3507 18.3123 27.5971 18.4143 27.7788 18.596C27.9604 18.7777 28.0625 19.0241 28.0625 19.281C28.0625 19.538 27.9604 19.7844 27.7788 19.966C27.5971 20.1477 27.3507 20.2498 27.0938 20.2498H9.65625C9.39933 20.2498 9.15292 20.1477 8.97124 19.966C8.78957 19.7844 8.6875 19.538 8.6875 19.281ZM8.6875 11.531C8.6875 11.2741 8.78957 11.0277 8.97124 10.846C9.15292 10.6643 9.39933 10.5623 9.65625 10.5623H27.0938C27.3507 10.5623 27.5971 10.6643 27.7788 10.846C27.9604 11.0277 28.0625 11.2741 28.0625 11.531C28.0625 11.788 27.9604 12.0344 27.7788 12.216C27.5971 12.3977 27.3507 12.4998 27.0938 12.4998H9.65625C9.39933 12.4998 9.15292 12.3977 8.97124 12.216C8.78957 12.0344 8.6875 11.788 8.6875 11.531ZM8.6875 3.78103C8.6875 3.5241 8.78957 3.27769 8.97124 3.09602C9.15292 2.91434 9.39933 2.81228 9.65625 2.81228H27.0938C27.3507 2.81228 27.5971 2.91434 27.7788 3.09602C27.9604 3.27769 28.0625 3.5241 28.0625 3.78103C28.0625 4.03796 27.9604 4.28436 27.7788 4.46604C27.5971 4.64771 27.3507 4.74978 27.0938 4.74978H9.65625C9.39933 4.74978 9.15292 4.64771 8.97124 4.46604C8.78957 4.28436 8.6875 4.03796 8.6875 3.78103ZM6.46713 1.15765C6.55734 1.24764 6.62892 1.35454 6.67776 1.47224C6.7266 1.58993 6.75173 1.7161 6.75173 1.84353C6.75173 1.97095 6.7266 2.09713 6.67776 2.21482C6.62892 2.33251 6.55734 2.43942 6.46713 2.5294L3.56088 5.43565C3.47089 5.52587 3.36399 5.59745 3.24629 5.64628C3.1286 5.69512 3.00243 5.72026 2.875 5.72026C2.74758 5.72026 2.62141 5.69512 2.50371 5.64628C2.38602 5.59745 2.27912 5.52587 2.18913 5.43565L1.22038 4.4669C1.13031 4.37683 1.05886 4.2699 1.01011 4.15222C0.961368 4.03454 0.936279 3.90841 0.936279 3.78103C0.936279 3.65365 0.961368 3.52752 1.01011 3.40984C1.05886 3.29215 1.13031 3.18522 1.22038 3.09515C1.31045 3.00508 1.41738 2.93364 1.53506 2.88489C1.65274 2.83614 1.77887 2.81105 1.90625 2.81105C2.03363 2.81105 2.15976 2.83614 2.27745 2.88489C2.39513 2.93364 2.50206 3.00508 2.59213 3.09515L2.875 3.37997L5.09538 1.15765C5.18537 1.06744 5.29227 0.995861 5.40996 0.947023C5.52766 0.898186 5.65383 0.873047 5.78125 0.873047C5.90868 0.873047 6.03485 0.898186 6.15254 0.947023C6.27024 0.995861 6.37714 1.06744 6.46713 1.15765ZM6.46713 8.90765C6.55734 8.99764 6.62892 9.10454 6.67776 9.22224C6.7266 9.33993 6.75173 9.4661 6.75173 9.59353C6.75173 9.72095 6.7266 9.84713 6.67776 9.96482C6.62892 10.0825 6.55734 10.1894 6.46713 10.2794L3.56088 13.1857C3.47089 13.2759 3.36399 13.3474 3.24629 13.3963C3.1286 13.4451 3.00243 13.4703 2.875 13.4703C2.74758 13.4703 2.62141 13.4451 2.50371 13.3963C2.38602 13.3474 2.27912 13.2759 2.18913 13.1857L1.22038 12.2169C1.03847 12.035 0.936279 11.7883 0.936279 11.531C0.936279 11.2738 1.03847 11.0271 1.22038 10.8452C1.40228 10.6632 1.649 10.5611 1.90625 10.5611C2.16351 10.5611 2.41022 10.6632 2.59213 10.8452L2.875 11.13L5.09538 8.90765C5.18537 8.81744 5.29227 8.74586 5.40996 8.69702C5.52766 8.64819 5.65383 8.62305 5.78125 8.62305C5.90868 8.62305 6.03485 8.64819 6.15254 8.69702C6.27024 8.74586 6.37714 8.81744 6.46713 8.90765ZM6.46713 16.6577C6.55734 16.7476 6.62892 16.8545 6.67776 16.9722C6.7266 17.0899 6.75173 17.2161 6.75173 17.3435C6.75173 17.471 6.7266 17.5971 6.67776 17.7148C6.62892 17.8325 6.55734 17.9394 6.46713 18.0294L3.56088 20.9357C3.47089 21.0259 3.36399 21.0974 3.24629 21.1463C3.1286 21.1951 3.00243 21.2203 2.875 21.2203C2.74758 21.2203 2.62141 21.1951 2.50371 21.1463C2.38602 21.0974 2.27912 21.0259 2.18913 20.9357L1.22038 19.9669C1.03847 19.785 0.936279 19.5383 0.936279 19.281C0.936279 19.0238 1.03847 18.7771 1.22038 18.5952C1.40228 18.4132 1.649 18.3111 1.90625 18.3111C2.16351 18.3111 2.41022 18.4132 2.59213 18.5952L2.875 18.88L5.09538 16.6577C5.18537 16.5674 5.29227 16.4959 5.40996 16.447C5.52766 16.3982 5.65383 16.373 5.78125 16.373C5.90868 16.373 6.03485 16.3982 6.15254 16.447C6.27024 16.4959 6.37714 16.5674 6.46713 16.6577Z" fill="black"/>
</svg>
