<svg width="208" height="41" viewBox="0 0 208 41" fill="none" xmlns="http://www.w3.org/2000/svg">
<path d="M0.0708328 18.1242L10.4806 9.69454L14.2277 9.68848L17.9041 9.73977L21.779 9.74672L21.6315 18.2522L3.74716 18.1755L0.0708328 18.1242Z" fill="#FF0000"/>
<path d="M6.94956 26.7633L0.911342 19.3068L3.93493 19.4207L6.97236 19.407L15.6875 19.4546L15.5939 26.8682L13.0106 26.8636L9.91618 26.807L6.94956 26.7633Z" fill="#927FFF"/>
<path d="M23.933 1.82897L40.3957 22.1587L18.089 40.2223L8.17724 27.9822L14.1813 28.0121L18.7954 33.7101L33.8081 21.553L21.7317 6.63987L19.6072 8.3602L12.1838 8.31497L22.4519 0L23.933 1.82897Z" fill="#969696"/>
<path d="M51.2312 28.9739C49.7752 28.9739 48.5205 28.6957 47.467 28.1394C46.4194 27.5771 45.6115 26.7722 45.0433 25.7246C44.4811 24.6711 44.2 23.4105 44.2 21.9426C44.2 20.534 44.484 19.303 45.0522 18.2495C45.6204 17.196 46.4224 16.3762 47.4581 15.7903C48.4939 15.2044 49.716 14.9114 51.1247 14.9114C52.1545 14.9114 53.0867 15.0712 53.9212 15.3908C54.7557 15.7104 55.4689 16.175 56.0607 16.7846C56.6526 17.3883 57.1083 18.1222 57.4279 18.9863C57.7475 19.8504 57.9073 20.824 57.9073 21.9071V23.0435H45.7269V20.3446H53.3974C53.3915 19.954 53.2909 19.6107 53.0955 19.3148C52.9062 19.013 52.6487 18.7792 52.3232 18.6135C52.0036 18.4418 51.6396 18.356 51.2312 18.356C50.8347 18.356 50.4707 18.4418 50.1392 18.6135C49.8078 18.7792 49.5415 19.01 49.3402 19.3059C49.1449 19.6019 49.0413 19.9481 49.0295 20.3446V23.2566C49.0295 23.6945 49.1212 24.0852 49.3047 24.4284C49.4882 24.7717 49.7516 25.041 50.0948 25.2363C50.4381 25.4316 50.8524 25.5293 51.3377 25.5293C51.6751 25.5293 51.9829 25.4819 52.261 25.3873C52.5451 25.2926 52.7878 25.1564 52.989 24.9789C53.1902 24.7954 53.3382 24.5764 53.4329 24.3219H57.9073C57.7535 25.2689 57.3895 26.0916 56.8154 26.79C56.2413 27.4824 55.4807 28.021 54.5338 28.4057C53.5927 28.7845 52.4919 28.9739 51.2312 28.9739Z" fill="#969696"/>
<path d="M68.8559 19.6344V23.3276H60.3332V19.6344H68.8559Z" fill="#969696"/>
<path d="M88.6757 17.3617H83.6686C83.6331 16.9474 83.5384 16.5716 83.3845 16.2342C83.2366 15.8968 83.0294 15.6068 82.7631 15.3642C82.5027 15.1156 82.186 14.9262 81.8131 14.796C81.4403 14.6599 81.0171 14.5918 80.5436 14.5918C79.715 14.5918 79.0137 14.793 78.4396 15.1955C77.8714 15.598 77.4393 16.175 77.1434 16.9267C76.8534 17.6783 76.7084 18.5809 76.7084 19.6344C76.7084 20.7471 76.8563 21.6793 77.1523 22.4309C77.4541 23.1767 77.8891 23.7389 78.4573 24.1177C79.0255 24.4906 79.7091 24.677 80.5081 24.677C80.9638 24.677 81.3722 24.6208 81.7332 24.5083C82.0943 24.39 82.408 24.2213 82.6743 24.0023C82.9406 23.7833 83.1567 23.5199 83.3224 23.2122C83.494 22.8985 83.6094 22.5463 83.6686 22.1557L88.6757 22.1912C88.6165 22.9606 88.4005 23.7449 88.0276 24.5439C87.6548 25.3369 87.1251 26.0708 86.4385 26.7456C85.7579 27.4144 84.9145 27.9529 83.9083 28.3613C82.9022 28.7697 81.7332 28.9739 80.4016 28.9739C78.7325 28.9739 77.2351 28.6158 75.9094 27.8997C74.5895 27.1835 73.5449 26.13 72.7755 24.7392C72.012 23.3483 71.6303 21.6467 71.6303 19.6344C71.6303 17.6103 72.0209 15.9057 72.8021 14.5208C73.5834 13.1299 74.6369 12.0794 75.9626 11.3691C77.2884 10.653 78.768 10.2949 80.4016 10.2949C81.5498 10.2949 82.6062 10.4518 83.571 10.7654C84.5357 11.0791 85.382 11.5378 86.11 12.1415C86.838 12.7393 87.4239 13.4761 87.8678 14.3521C88.3117 15.228 88.581 16.2312 88.6757 17.3617Z" fill="#969696"/>
<path d="M97.5558 28.9739C96.0761 28.9739 94.8096 28.6809 93.7561 28.095C92.7026 27.5031 91.8947 26.6805 91.3324 25.627C90.7701 24.5675 90.489 23.3394 90.489 21.9426C90.489 20.5459 90.7701 19.3207 91.3324 18.2672C91.8947 17.2078 92.7026 16.3851 93.7561 15.7992C94.8096 15.2073 96.0761 14.9114 97.5558 14.9114C99.0354 14.9114 100.302 15.2073 101.355 15.7992C102.409 16.3851 103.217 17.2078 103.779 18.2672C104.341 19.3207 104.623 20.5459 104.623 21.9426C104.623 23.3394 104.341 24.5675 103.779 25.627C103.217 26.6805 102.409 27.5031 101.355 28.095C100.302 28.6809 99.0354 28.9739 97.5558 28.9739ZM97.5913 25.3517C98.0056 25.3517 98.3637 25.2127 98.6655 24.9345C98.9674 24.6563 99.2011 24.2598 99.3669 23.7449C99.5326 23.2299 99.6154 22.6174 99.6154 21.9071C99.6154 21.191 99.5326 20.5784 99.3669 20.0694C99.2011 19.5545 98.9674 19.158 98.6655 18.8798C98.3637 18.6016 98.0056 18.4625 97.5913 18.4625C97.1533 18.4625 96.7775 18.6016 96.4638 18.8798C96.1501 19.158 95.9104 19.5545 95.7447 20.0694C95.579 20.5784 95.4961 21.191 95.4961 21.9071C95.4961 22.6174 95.579 23.2299 95.7447 23.7449C95.9104 24.2598 96.1501 24.6563 96.4638 24.9345C96.7775 25.2127 97.1533 25.3517 97.5913 25.3517Z" fill="#969696"/>
<path d="M106.611 28.7253V15.089H111.263V17.6813H111.405C111.689 16.829 112.175 16.1543 112.861 15.6571C113.548 15.16 114.364 14.9114 115.311 14.9114C116.27 14.9114 117.096 15.1659 117.788 15.6749C118.481 16.178 118.898 16.8468 119.04 17.6813H119.182C119.413 16.8468 119.904 16.178 120.656 15.6749C121.408 15.1659 122.289 14.9114 123.302 14.9114C124.61 14.9114 125.669 15.3316 126.48 16.1721C127.297 17.0125 127.705 18.1311 127.705 19.5279V28.7253H122.804V20.7708C122.804 20.173 122.653 19.7054 122.352 19.3681C122.05 19.0248 121.644 18.8532 121.135 18.8532C120.632 18.8532 120.233 19.0248 119.937 19.3681C119.647 19.7054 119.502 20.173 119.502 20.7708V28.7253H114.814V20.7708C114.814 20.173 114.663 19.7054 114.362 19.3681C114.06 19.0248 113.654 18.8532 113.145 18.8532C112.808 18.8532 112.518 18.9301 112.275 19.084C112.033 19.2379 111.843 19.4598 111.707 19.7498C111.577 20.0339 111.512 20.3742 111.512 20.7708V28.7253H106.611Z" fill="#969696"/>
<path d="M130.122 28.7253V15.089H134.774V17.6813H134.916C135.2 16.829 135.685 16.1543 136.372 15.6571C137.058 15.16 137.875 14.9114 138.822 14.9114C139.781 14.9114 140.607 15.1659 141.299 15.6749C141.992 16.178 142.409 16.8468 142.551 17.6813H142.693C142.924 16.8468 143.415 16.178 144.167 15.6749C144.918 15.1659 145.8 14.9114 146.812 14.9114C148.12 14.9114 149.18 15.3316 149.991 16.1721C150.807 17.0125 151.216 18.1311 151.216 19.5279V28.7253H146.315V20.7708C146.315 20.173 146.164 19.7054 145.862 19.3681C145.56 19.0248 145.155 18.8532 144.646 18.8532C144.143 18.8532 143.743 19.0248 143.448 19.3681C143.158 19.7054 143.013 20.173 143.013 20.7708V28.7253H138.325V20.7708C138.325 20.173 138.174 19.7054 137.872 19.3681C137.57 19.0248 137.165 18.8532 136.656 18.8532C136.319 18.8532 136.029 18.9301 135.786 19.084C135.543 19.2379 135.354 19.4598 135.218 19.7498C135.088 20.0339 135.022 20.3742 135.022 20.7708V28.7253H130.122Z" fill="#969696"/>
<path d="M160.167 28.9739C158.711 28.9739 157.456 28.6957 156.403 28.1394C155.355 27.5771 154.547 26.7722 153.979 25.7246C153.417 24.6711 153.135 23.4105 153.135 21.9426C153.135 20.534 153.42 19.303 153.988 18.2495C154.556 17.196 155.358 16.3762 156.394 15.7903C157.429 15.2044 158.652 14.9114 160.06 14.9114C161.09 14.9114 162.022 15.0712 162.857 15.3908C163.691 15.7104 164.404 16.175 164.996 16.7846C165.588 17.3883 166.044 18.1222 166.363 18.9863C166.683 19.8504 166.843 20.824 166.843 21.9071V23.0435H154.662V20.3446H162.333C162.327 19.954 162.226 19.6107 162.031 19.3148C161.842 19.013 161.584 18.7792 161.259 18.6135C160.939 18.4418 160.575 18.356 160.167 18.356C159.77 18.356 159.406 18.4418 159.075 18.6135C158.743 18.7792 158.477 19.01 158.276 19.3059C158.08 19.6019 157.977 19.9481 157.965 20.3446V23.2566C157.965 23.6945 158.057 24.0852 158.24 24.4284C158.424 24.7717 158.687 25.041 159.03 25.2363C159.374 25.4316 159.788 25.5293 160.273 25.5293C160.611 25.5293 160.918 25.4819 161.197 25.3873C161.481 25.2926 161.723 25.1564 161.925 24.9789C162.126 24.7954 162.274 24.5764 162.368 24.3219H166.843C166.689 25.2689 166.325 26.0916 165.751 26.79C165.177 27.4824 164.416 28.021 163.469 28.4057C162.528 28.7845 161.427 28.9739 160.167 28.9739Z" fill="#969696"/>
<path d="M168.843 28.7253V15.089H173.601V17.6813H173.743C173.992 16.7225 174.385 16.0211 174.924 15.5772C175.468 15.1333 176.105 14.9114 176.833 14.9114C177.046 14.9114 177.256 14.9292 177.463 14.9647C177.676 14.9943 177.88 15.0386 178.076 15.0978V19.2793C177.833 19.1964 177.534 19.1343 177.179 19.0929C176.824 19.0514 176.519 19.0307 176.264 19.0307C175.785 19.0307 175.353 19.1402 174.968 19.3592C174.59 19.5723 174.291 19.8741 174.072 20.2647C173.853 20.6494 173.743 21.1022 173.743 21.623V28.7253H168.843Z" fill="#969696"/>
<path d="M185.471 28.9739C183.991 28.9739 182.725 28.6809 181.671 28.095C180.618 27.5031 179.81 26.6805 179.247 25.627C178.685 24.5675 178.404 23.3394 178.404 21.9426C178.404 20.5459 178.685 19.3207 179.247 18.2672C179.81 17.2078 180.618 16.3851 181.671 15.7992C182.725 15.2073 183.991 14.9114 185.471 14.9114C186.808 14.9114 187.965 15.1541 188.942 15.6394C189.925 16.1188 190.685 16.7994 191.224 17.6813C191.762 18.5572 192.035 19.5871 192.04 20.7708H187.495C187.43 20.0546 187.223 19.5101 186.874 19.1373C186.53 18.7585 186.086 18.5691 185.542 18.5691C185.116 18.5691 184.743 18.6934 184.423 18.9419C184.104 19.1846 183.855 19.5545 183.677 20.0517C183.5 20.5429 183.411 21.1614 183.411 21.9071C183.411 22.6529 183.5 23.2743 183.677 23.7715C183.855 24.2627 184.104 24.6326 184.423 24.8812C184.743 25.1239 185.116 25.2452 185.542 25.2452C185.903 25.2452 186.222 25.1623 186.501 24.9966C186.779 24.825 187.004 24.5764 187.175 24.2509C187.353 23.9194 187.459 23.517 187.495 23.0435H192.04C192.023 24.245 191.747 25.2926 191.215 26.1863C190.682 27.074 189.927 27.7606 188.951 28.2459C187.98 28.7312 186.82 28.9739 185.471 28.9739Z" fill="#969696"/>
<path d="M200.596 28.9739C199.14 28.9739 197.886 28.6957 196.832 28.1394C195.785 27.5771 194.977 26.7722 194.409 25.7246C193.846 24.6711 193.565 23.4105 193.565 21.9426C193.565 20.534 193.849 19.303 194.417 18.2495C194.986 17.196 195.788 16.3762 196.823 15.7903C197.859 15.2044 199.081 14.9114 200.49 14.9114C201.52 14.9114 202.452 15.0712 203.286 15.3908C204.121 15.7104 204.834 16.175 205.426 16.7846C206.018 17.3883 206.474 18.1222 206.793 18.9863C207.113 19.8504 207.273 20.824 207.273 21.9071V23.0435H195.092V20.3446H202.763C202.757 19.954 202.656 19.6107 202.461 19.3148C202.271 19.013 202.014 18.7792 201.688 18.6135C201.369 18.4418 201.005 18.356 200.596 18.356C200.2 18.356 199.836 18.4418 199.504 18.6135C199.173 18.7792 198.907 19.01 198.705 19.3059C198.51 19.6019 198.407 19.9481 198.395 20.3446V23.2566C198.395 23.6945 198.486 24.0852 198.67 24.4284C198.853 24.7717 199.117 25.041 199.46 25.2363C199.803 25.4316 200.218 25.5293 200.703 25.5293C201.04 25.5293 201.348 25.4819 201.626 25.3873C201.91 25.2926 202.153 25.1564 202.354 24.9789C202.555 24.7954 202.703 24.5764 202.798 24.3219H207.273C207.119 25.2689 206.755 26.0916 206.181 26.79C205.607 27.4824 204.846 28.021 203.899 28.4057C202.958 28.7845 201.857 28.9739 200.596 28.9739Z" fill="#969696"/>
</svg>
