<svg width="24" height="24" viewBox="0 0 24 24" fill="none" xmlns="http://www.w3.org/2000/svg">
<g clip-path="url(#clip0_390_1424)">
<path d="M5.625 0C5.39213 0 5.16246 0.0542176 4.95418 0.158359C4.7459 0.262501 4.56472 0.413706 4.425 0.6L0.15 6.3C0.0526334 6.42982 0 6.58772 0 6.75L0 22.5C0 22.8978 0.158035 23.2794 0.43934 23.5607C0.720644 23.842 1.10218 24 1.5 24H22.5C22.8978 24 23.2794 23.842 23.5607 23.5607C23.842 23.2794 24 22.8978 24 22.5V6.75C24 6.58772 23.9474 6.42982 23.85 6.3L19.575 0.6C19.4353 0.413706 19.2541 0.262501 19.0458 0.158359C18.8375 0.0542176 18.6079 0 18.375 0L5.625 0ZM12.75 6H21.75L22.5 7.0005V7.5H1.5V7.0005L2.25 6H11.25V1.5H12.75V6ZM12 11.9895C14.496 9.423 20.7375 13.914 12 19.6875C3.2625 13.9125 9.504 9.423 12 11.9895Z" fill="white"/>
</g>
<defs>
<clipPath id="clip0_390_1424">
<rect width="24" height="24" fill="white"/>
</clipPath>
</defs>
</svg>
